<?xml version="1.0" encoding="UTF-8"?>
<svg xmlns="http://www.w3.org/2000/svg" xmlns:xlink="http://www.w3.org/1999/xlink" width="32pt" height="32pt" viewBox="0 0 32 32" version="1.1">

<path style="fill:#010101; stroke:none;" d="M6.32253 6.04707C4.08719 7.44462 4.45652 10.0312 5.62269 12.0008C7.78421 15.6514 12.4185 17.9251 13.8519 22C14.7421 24.531 12.6847 27.2712 14.0849 29.6775C15.0854 31.3969 17.1341 31.7062 18.8349 30.9136C21.331 29.7504 23.0646 26.9597 25.0386 25.1281C26.7075 23.5795 29.0002 22.3724 30.3773 20.5455C31.4959 19.0617 31.8078 17.0468 30.3773 15.6219C27.9005 13.1548 23.9621 15.9897 21 14.3835C17.0921 12.2644 11.7444 2.65723 6.32253 6.04707z"/>
<path style="fill:#ffad83; stroke:none;" d="M6 11C8.04357 9.37615 8.89645 8.35721 10 6C6.9329 6.86628 5.77445 7.76895 6 11M11 8C10.5524 8.69518 9.22298 10.0724 9.18673 11.1605C9.02796 15.9264 14.4187 17.8022 15.6744 22C16.2336 23.8694 13.4676 29.7932 17.0779 29.7932C18.8447 29.7932 20.165 28.0589 21.2855 26.9414L28.6235 20.2948C29.4775 19.353 30.4192 17.8608 29.2485 16.7284C27.4529 14.9916 24.1891 17.3301 22 16.6744C17.8849 15.4418 14.4969 10.4633 11 8z"/>
<path style="fill:#ffffff; stroke:none;" d="M31 20C26.0118 23.4321 22.0684 26.6923 19 32L32 32C32 28.0168 32.5515 23.6975 31 20z"/>
</svg>
