<?xml version="1.0" encoding="UTF-8"?>
<svg xmlns="http://www.w3.org/2000/svg" xmlns:xlink="http://www.w3.org/1999/xlink" width="32pt" height="32pt" viewBox="0 0 32 32" version="1.1">

<path style="fill:#010101; stroke:none;" d="M4.32253 3.04707C2.08719 4.44462 2.45652 7.03123 3.62269 9.00077C5.78421 12.6514 10.4185 14.9251 11.8519 19C12.7421 21.531 10.6847 24.2712 12.0849 26.6775C13.0854 28.3969 15.1341 28.7062 16.8349 27.9136C19.331 26.7504 21.0646 23.9597 23.0386 22.1281C24.7075 20.5795 27.0002 19.3724 28.3773 17.5455C29.4959 16.0617 29.8078 14.0468 28.3773 12.6219C25.9005 10.1548 21.9621 12.9897 19 11.3835C15.0921 9.26445 9.74445 -0.342762 4.32253 3.04707z"/>
<path style="fill:#ffad83; stroke:none;" d="M4 8C6.04356 6.37615 6.89645 5.35721 8 3C4.9329 3.86628 3.77445 4.76895 4 8M9 5C8.55235 5.69518 7.22298 7.07243 7.18673 8.16049C7.02796 12.9264 12.4187 14.8022 13.6744 19C14.2336 20.8694 11.4676 26.7932 15.0779 26.7932C16.8447 26.7932 18.165 25.0589 19.2855 23.9414L26.6235 17.2948C27.4775 16.353 28.4192 14.8608 27.2485 13.7284C25.4529 11.9916 22.1891 14.3301 20 13.6744C15.8849 12.4418 12.4969 7.4633 9 5z"/>
</svg>
