<svg xmlns="http://www.w3.org/2000/svg" width="80" height="34" viewBox="0 0 80 34" fill="none">
  <g clip-path="url(#clip0_143_1341)">
    <path d="M15.6348 14.6346L26.1788 0L47.5281 30.6971L55.7468 19.2926H58.0721L47.5281 33.9271L26.1788 3.23486L17.9601 14.6346H15.6348Z" fill="#CC0000"/>
    <path d="M20.4666 32.1595V27.8657H29.224V26.0249H20.4666V21.1192H34.472L33.1653 19.2783H20.4666H18.4453V21.1192V26.0249V27.8657V32.1595V34.0003H20.4666H34.6106V32.1595H20.4666Z" fill="white"/>
    <path d="M7.9115 19.2783H1.84751H1.17551H-0.173828V34.0003H1.17551H1.84751H7.9115C12.3755 34.0003 15.9968 30.7023 15.9968 26.6369C15.9968 22.5715 12.3755 19.2783 7.9115 19.2783ZM7.9115 32.1595H1.84751V21.1192H7.9115C11.2608 21.1192 13.9755 23.5915 13.9755 26.6417C13.9755 29.6872 11.2608 32.1595 7.9115 32.1595Z" fill="white"/>
    <path d="M56.1515 0V11.0403L40.6582 0V9.81628V11.8174V14.722H42.6795V9.81628V3.78857L58.1675 14.722V0H56.1515Z" fill="white"/>
    <path d="M9.13757 8.47571L15.9642 0H18.3962L10.1242 10.2437V14.7123H8.15624V10.2437L-0.121094 0H2.31091L9.13757 8.47571Z" fill="white"/>
  </g>
  <defs>
    <clipPath id="clip0_143_1341">
      <rect width="80" height="34" fill="white"/>
    </clipPath>
  </defs>
</svg>