<svg xmlns="http://www.w3.org/2000/svg" width="91" height="42" viewBox="0 0 91 42" fill="none">
<path d="M30.2969 18.078L42.2907 0L66.5756 37.92L75.9243 23.832H78.5694L66.5756 41.91L42.2907 3.996L32.942 18.078H30.2969Z" fill="#CC0000"/>
<path d="M35.7933 39.726V34.422H45.7548V32.148H35.7933V26.088H51.7244L50.2381 23.814H35.7933H33.4941V26.088V32.148V34.422V39.726V42H35.7933H51.8821V39.726H35.7933Z" fill="black"/>
<path d="M21.5124 23.814H14.6146H13.8502H12.3153V42H13.8502H14.6146H21.5124C26.5902 42 30.7095 37.926 30.7095 32.904C30.7095 27.882 26.5902 23.814 21.5124 23.814ZM21.5124 39.726H14.6146V26.088H21.5124C25.3223 26.088 28.4102 29.142 28.4102 32.91C28.4102 36.672 25.3223 39.726 21.5124 39.726Z" fill="black"/>
<path d="M76.3854 0V13.638L58.7617 0V12.126V14.598V18.186H61.061V12.126V4.68L78.6786 18.186V0H76.3854Z" fill="black"/>
<path d="M22.9077 10.47L30.6731 0H33.4395L24.0301 12.654V18.174H21.7915V12.654L12.376 0H15.1424L22.9077 10.47Z" fill="black"/>
</svg>