<svg xmlns="http://www.w3.org/2000/svg" width="80" height="80" viewBox="0 0 80 80" fill="none">
<path d="M20.7479 59.7624C21.2197 60.2223 21.8559 60.4744 22.5146 60.4624C23.1714 60.4637 23.8036 60.2132 24.2813 59.7624L55.3813 28.6331L55.3813 55.4958C55.3813 56.8765 56.5006 57.9958 57.8813 57.9958C58.5528 58.014 59.2027 57.7575 59.6808 57.2857C60.1589 56.8139 60.4239 56.1674 60.4146 55.4958L60.4146 23.055C60.5012 22.6747 60.4992 22.2729 60.3992 21.8815C60.173 20.9957 59.4813 20.304 58.5956 20.0778C58.2041 19.9778 57.8023 19.9758 57.422 20.0624L24.9813 20.0624C23.6006 20.0624 22.4813 21.1817 22.4813 22.5624C22.4813 23.9431 23.6006 25.0624 24.9813 25.0624L51.8813 25.0624L20.7479 56.1958C20.2695 56.6658 20 57.3084 20 57.9791C20 58.6498 20.2695 59.2924 20.7479 59.7624Z" fill="#CC0000"/>
</svg>